<svg width="23" height="23" viewBox="0 0 23 23" fill="none" xmlns="http://www.w3.org/2000/svg">
<path d="M23 11.405C23 5.10618 17.8513 0 11.5 0C5.14872 0 0 5.10618 0 11.405C0 17.0975 4.20538 21.8158 9.70313 22.6714V14.7017H6.78321V11.405H9.70313V8.89233C9.70313 6.03395 11.42 4.45508 14.0468 4.45508C15.305 4.45508 16.6211 4.67783 16.6211 4.67783V7.48452H15.171C13.7424 7.48452 13.2969 8.36367 13.2969 9.26561V11.405H16.4863L15.9765 14.7017H13.2969V22.6714C18.7946 21.8158 23 17.0975 23 11.405Z" fill="white"/>
<path d="M16.1112 14.8718L16.6221 11.567H13.4264V9.42231C13.4264 8.51817 13.8728 7.63687 15.3042 7.63687H16.7571V4.82327C16.7571 4.82327 15.4385 4.59998 14.1778 4.59998C11.5458 4.59998 9.82562 6.18272 9.82562 9.04813V11.567H6.89999V14.8718H9.82562V22.8611C10.4212 22.9537 11.0232 23.0001 11.626 23C12.2385 23 12.8398 22.9524 13.4264 22.8611V14.8718H16.1112Z" fill="#001E65"/>
</svg>
