<?xml version="1.0" encoding="UTF-8" standalone="no"?><!DOCTYPE svg PUBLIC "-//W3C//DTD SVG 1.1//EN" "http://www.w3.org/Graphics/SVG/1.1/DTD/svg11.dtd"><svg width="100%" height="100%" viewBox="0 0 16 23" version="1.1" xmlns="http://www.w3.org/2000/svg" xmlns:xlink="http://www.w3.org/1999/xlink" xml:space="preserve" xmlns:serif="http://www.serif.com/" style="fill-rule:evenodd;clip-rule:evenodd;stroke-linejoin:round;stroke-miterlimit:2;"><path d="M10.947,15.179l-0.66,0.302c0,-0 -1.568,0.716 -3.551,-3.553c-1.982,-4.27 -0.414,-4.987 -0.414,-4.987l0.415,-0.191c1.024,-0.467 1.537,-1.637 1.205,-2.751l-0.677,-2.277c-0.411,-1.38 -1.921,-2.1 -3.189,-1.52l-2.274,1.039c-0.628,0.288 -1.154,0.766 -1.359,1.437c-0.526,1.717 -1.1,5.615 1.586,11.402c2.85,6.136 7.007,7.873 8.793,8.349c0.566,0.151 1.143,0.049 1.667,-0.192l2.057,-0.941c1.39,-0.634 1.744,-2.473 0.703,-3.66l-1.618,-1.848c-0.683,-0.78 -1.772,-1.026 -2.684,-0.609Z" style="fill:#fff;fill-rule:nonzero;"/></svg>