<svg width="52" height="52" viewBox="0 0 52 52" fill="none" xmlns="http://www.w3.org/2000/svg">
<g clip-path="url(#clip0_10_383)">
<path d="M32.2888 29.734L31.316 30.1797C31.316 30.1797 29.0016 31.2371 26.0769 24.938C23.1522 18.6389 25.4665 17.5815 25.4665 17.5815L26.0787 17.2994C27.5893 16.6098 28.345 14.8848 27.8559 13.2403L26.8571 9.88167C26.2512 7.84592 24.0228 6.7836 22.1526 7.63891L18.7975 9.17199C17.8712 9.59755 17.0957 10.3027 16.7926 11.2923C16.0175 13.8256 15.1704 19.5764 19.1328 28.1132C23.3367 37.1656 29.4705 39.7281 32.1052 40.4305C32.9397 40.6533 33.7914 40.5022 34.5636 40.1476L37.5988 38.7594C39.6498 37.8234 40.1712 35.1111 38.6361 33.3595L36.2493 30.6327C35.2419 29.4827 33.6351 29.1188 32.2888 29.734Z" fill="white"/>
</g>
<defs>
<clipPath id="clip0_10_383">
<rect width="40" height="40" fill="white" transform="translate(13.8508) rotate(20.2594)"/>
</clipPath>
</defs>
</svg>
